<?xml version="1.0" encoding="utf-8" standalone="no"?>
<!DOCTYPE svg PUBLIC "-//W3C//DTD SVG 1.1//EN"
  "http://www.w3.org/Graphics/SVG/1.1/DTD/svg11.dtd">
<svg xmlns:xlink="http://www.w3.org/1999/xlink" width="552.384pt" height="309.461pt" viewBox="0 0 552.384 309.461" xmlns="http://www.w3.org/2000/svg" version="1.1">
 <metadata>
  <rdf:RDF xmlns:dc="http://purl.org/dc/elements/1.1/" xmlns:cc="http://creativecommons.org/ns#" xmlns:rdf="http://www.w3.org/1999/02/22-rdf-syntax-ns#">
   <cc:Work>
    <dc:type rdf:resource="http://purl.org/dc/dcmitype/StillImage"/>
    <dc:date>2026-07-11T20:23:52.887464</dc:date>
    <dc:format>image/svg+xml</dc:format>
    <dc:creator>
     <cc:Agent>
      <dc:title>Matplotlib v3.11.0, https://matplotlib.org/</dc:title>
     </cc:Agent>
    </dc:creator>
   </cc:Work>
  </rdf:RDF>
 </metadata>
 <defs>
  <style type="text/css">*{stroke-linejoin: round; stroke-linecap: butt}</style>
 </defs>
 <g id="figure_1">
  <g id="patch_1">
   <path d="M 0 309.461 
L 552.384 309.461 
L 552.384 0 
L 0 0 
L 0 309.461 
z
" style="fill: none"/>
  </g>
  <g id="axes_1">
   <g id="patch_2">
    <path d="M 60.048 263.196 
L 541.584 263.196 
L 541.584 44.748 
L 60.048 44.748 
L 60.048 263.196 
z
" style="fill: none"/>
   </g>
   <g id="FillBetweenPolyCollection_1">
    <defs>
     <path id="m53ecfc4047" d="M 60.048 -50.34814 
L 60.048 -50.34814 
L 61.254857 -50.34814 
L 62.461714 -50.34814 
L 63.668571 -50.34814 
L 64.875429 -50.34814 
L 66.082286 -50.34814 
L 67.289143 -50.34814 
L 68.496 -50.34814 
L 69.702857 -50.34814 
L 70.909714 -50.34814 
L 72.116571 -50.34814 
L 73.323429 -50.34814 
L 74.530286 -50.34814 
L 75.737143 -50.34814 
L 76.944 -50.34814 
L 78.150857 -50.34814 
L 79.357714 -50.34814 
L 80.564571 -50.34814 
L 81.771429 -50.34814 
L 82.978286 -50.34814 
L 84.185143 -50.34814 
L 85.392 -50.34814 
L 86.598857 -50.34814 
L 87.805714 -50.34814 
L 89.012571 -50.34814 
L 90.219429 -50.34814 
L 91.426286 -50.34814 
L 92.633143 -50.34814 
L 93.84 -50.34814 
L 95.046857 -50.34814 
L 96.253714 -50.34814 
L 97.460571 -50.34814 
L 98.667429 -50.34814 
L 99.874286 -50.34814 
L 101.081143 -50.34814 
L 102.288 -50.34814 
L 103.494857 -50.34814 
L 104.701714 -50.34814 
L 105.908571 -50.34814 
L 107.115429 -50.34814 
L 108.322286 -50.34814 
L 109.529143 -50.34814 
L 110.736 -50.34814 
L 111.942857 -50.34814 
L 113.149714 -50.34814 
L 114.356571 -50.34814 
L 115.563429 -50.34814 
L 116.770286 -50.34814 
L 117.977143 -50.34814 
L 119.184 -50.34814 
L 120.390857 -50.34814 
L 121.597714 -50.34814 
L 122.804571 -50.34814 
L 124.011429 -50.34814 
L 125.218286 -50.34814 
L 126.425143 -50.34814 
L 127.632 -50.34814 
L 128.838857 -50.34814 
L 130.045714 -50.34814 
L 131.252571 -50.34814 
L 132.459429 -50.34814 
L 133.666286 -50.34814 
L 134.873143 -50.34814 
L 136.08 -50.34814 
L 137.286857 -50.34814 
L 138.493714 -50.34814 
L 139.700571 -50.34814 
L 140.907429 -50.34814 
L 142.114286 -50.34814 
L 143.321143 -50.34814 
L 144.528 -50.34814 
L 145.734857 -50.34814 
L 146.941714 -50.34814 
L 148.148571 -50.34814 
L 149.355429 -50.34814 
L 150.562286 -50.34814 
L 151.769143 -50.34814 
L 152.976 -50.34814 
L 154.182857 -50.34814 
L 155.389714 -50.34814 
L 156.596571 -50.34814 
L 157.803429 -50.34814 
L 159.010286 -50.34814 
L 160.217143 -50.34814 
L 161.424 -50.34814 
L 162.630857 -50.34814 
L 163.837714 -50.34814 
L 165.044571 -50.34814 
L 166.251429 -50.34814 
L 167.458286 -50.34814 
L 168.665143 -50.34814 
L 169.872 -50.34814 
L 171.078857 -50.34814 
L 172.285714 -50.34814 
L 173.492571 -50.34814 
L 174.699429 -50.34814 
L 175.906286 -50.34814 
L 177.113143 -50.34814 
L 178.32 -50.34814 
L 179.526857 -50.34814 
L 180.733714 -50.34814 
L 181.940571 -50.34814 
L 183.147429 -50.34814 
L 184.354286 -50.34814 
L 185.561143 -50.34814 
L 186.768 -50.34814 
L 187.974857 -50.34814 
L 189.181714 -50.34814 
L 190.388571 -50.34814 
L 191.595429 -50.34814 
L 192.802286 -50.34814 
L 194.009143 -50.34814 
L 195.216 -50.34814 
L 196.422857 -50.34814 
L 197.629714 -50.34814 
L 198.836571 -50.34814 
L 200.043429 -50.34814 
L 201.250286 -50.34814 
L 202.457143 -50.34814 
L 203.664 -50.34814 
L 204.870857 -50.34814 
L 206.077714 -50.34814 
L 207.284571 -50.34814 
L 208.491429 -50.34814 
L 209.698286 -50.34814 
L 210.905143 -50.34814 
L 212.112 -50.34814 
L 213.318857 -50.34814 
L 214.525714 -50.34814 
L 215.732571 -50.34814 
L 216.939429 -50.348141 
L 218.146286 -50.348141 
L 219.353143 -50.348142 
L 220.56 -50.348143 
L 221.766857 -50.348145 
L 222.973714 -50.348148 
L 224.180571 -50.348154 
L 225.387429 -50.348163 
L 226.594286 -50.348178 
L 227.801143 -50.3482 
L 229.008 -50.348236 
L 230.214857 -50.348289 
L 231.421714 -50.348368 
L 232.628571 -50.348485 
L 233.835429 -50.348654 
L 235.042286 -50.348898 
L 236.249143 -50.349241 
L 237.456 -50.349722 
L 238.662857 -50.350386 
L 239.869714 -50.351292 
L 241.076571 -50.352514 
L 242.283429 -50.354148 
L 243.490286 -50.356307 
L 244.697143 -50.359132 
L 245.904 -50.362779 
L 247.110857 -50.367406 
L 248.317714 -50.373277 
L 249.524571 -50.380664 
L 250.731429 -50.389882 
L 251.938286 -50.401296 
L 253.145143 -50.415642 
L 254.352 -50.433707 
L 255.558857 -50.455717 
L 256.765714 -50.481493 
L 257.972571 -50.512341 
L 259.179429 -50.549022 
L 260.386286 -50.592365 
L 261.593143 -50.643273 
L 262.8 -50.702715 
L 264.006857 -50.771734 
L 265.213714 -50.851436 
L 266.420571 -50.943086 
L 267.627429 -51.048016 
L 268.834286 -51.16739 
L 270.041143 -51.302548 
L 271.248 -51.454873 
L 272.454857 -51.625781 
L 273.661714 -51.816713 
L 274.868571 -52.031741 
L 276.075429 -52.275801 
L 277.282286 -52.546101 
L 278.489143 -52.844267 
L 279.696 -53.171904 
L 280.902857 -53.530581 
L 282.109714 -53.921825 
L 283.316571 -54.347104 
L 284.523429 -54.807824 
L 285.730286 -55.305311 
L 286.937143 -55.840809 
L 288.144 -56.415466 
L 289.350857 -57.030331 
L 290.557714 -57.686344 
L 291.764571 -58.384331 
L 292.971429 -59.125 
L 294.178286 -59.908936 
L 295.385143 -60.718426 
L 296.592 -61.534001 
L 297.798857 -62.38823 
L 299.005714 -63.281153 
L 300.212571 -64.212708 
L 301.419429 -65.182738 
L 302.626286 -66.190989 
L 303.833143 -67.237117 
L 305.04 -68.320687 
L 306.246857 -69.441176 
L 307.453714 -70.59798 
L 308.660571 -71.790417 
L 309.867429 -73.017729 
L 311.074286 -74.279087 
L 312.281143 -75.573597 
L 313.488 -76.900307 
L 314.694857 -78.258204 
L 315.901714 -79.646229 
L 317.108571 -81.063273 
L 318.315429 -82.508189 
L 319.522286 -83.97979 
L 320.729143 -85.47686 
L 321.936 -86.998157 
L 323.142857 -88.542416 
L 324.349714 -90.108353 
L 325.556571 -91.694672 
L 326.763429 -93.325759 
L 327.970286 -94.991129 
L 329.177143 -96.673909 
L 330.384 -98.372692 
L 331.590857 -100.086072 
L 332.797714 -101.812659 
L 334.004571 -103.55107 
L 335.211429 -105.299941 
L 336.418286 -107.057927 
L 337.625143 -108.823703 
L 338.832 -110.59597 
L 340.038857 -112.373454 
L 341.245714 -114.154911 
L 342.452571 -115.939124 
L 343.659429 -117.724911 
L 344.866286 -119.511122 
L 346.073143 -121.29664 
L 347.28 -123.080385 
L 348.486857 -124.861313 
L 349.693714 -126.638415 
L 350.900571 -128.410721 
L 352.107429 -130.177298 
L 353.314286 -131.937251 
L 354.521143 -133.69244 
L 355.728 -135.447493 
L 356.934857 -137.193401 
L 358.141714 -138.929404 
L 359.348571 -140.65478 
L 360.555429 -142.368846 
L 361.762286 -144.070953 
L 362.969143 -145.797574 
L 364.176 -147.620832 
L 365.382857 -149.428604 
L 366.589714 -151.220221 
L 367.796571 -152.995062 
L 369.003429 -154.752548 
L 370.210286 -156.492145 
L 371.417143 -158.21336 
L 372.624 -159.915741 
L 373.830857 -161.384338 
L 375.037714 -162.820957 
L 376.244571 -164.241939 
L 377.451429 -165.647116 
L 378.658286 -167.036338 
L 379.865143 -168.409473 
L 381.072 -169.76641 
L 382.278857 -171.107053 
L 383.485714 -172.431324 
L 384.692571 -173.73916 
L 385.899429 -175.030516 
L 387.106286 -176.305357 
L 388.313143 -177.563666 
L 389.52 -178.805437 
L 390.726857 -180.072914 
L 391.933714 -181.350017 
L 393.140571 -182.608988 
L 394.347429 -183.849864 
L 395.554286 -185.072695 
L 396.761143 -186.277543 
L 397.968 -187.464481 
L 399.174857 -188.633593 
L 400.381714 -189.784975 
L 401.588571 -190.918728 
L 402.795429 -192.034967 
L 404.002286 -193.133812 
L 405.209143 -194.215391 
L 406.416 -195.279839 
L 407.622857 -196.3273 
L 408.829714 -197.357922 
L 410.036571 -198.371858 
L 411.243429 -199.371253 
L 412.450286 -200.35918 
L 413.657143 -201.330713 
L 414.864 -202.286026 
L 416.070857 -203.225298 
L 417.277714 -204.14871 
L 418.484571 -205.056447 
L 419.691429 -205.948695 
L 420.898286 -206.825645 
L 422.105143 -207.687488 
L 423.312 -208.534416 
L 424.518857 -209.366626 
L 425.725714 -210.184311 
L 426.932571 -210.98767 
L 428.139429 -211.800698 
L 429.346286 -212.630726 
L 430.553143 -213.445234 
L 431.76 -214.244451 
L 432.966857 -215.028608 
L 434.173714 -215.797934 
L 435.380571 -216.55266 
L 436.587429 -217.293016 
L 437.794286 -218.01923 
L 439.001143 -218.731531 
L 440.208 -219.430146 
L 441.414857 -220.115299 
L 442.621714 -220.787217 
L 443.828571 -221.446121 
L 445.035429 -222.092233 
L 446.242286 -222.69958 
L 447.449143 -223.275915 
L 448.656 -223.841653 
L 449.862857 -224.396972 
L 451.069714 -224.942051 
L 452.276571 -225.477063 
L 453.483429 -226.002184 
L 454.690286 -226.517583 
L 455.897143 -227.023431 
L 457.104 -227.519894 
L 458.310857 -228.007137 
L 459.517714 -228.485323 
L 460.724571 -228.954614 
L 461.931429 -229.415167 
L 463.138286 -229.867139 
L 464.345143 -230.310684 
L 465.552 -230.745955 
L 466.758857 -231.173101 
L 467.965714 -231.592269 
L 469.172571 -232.003606 
L 470.379429 -232.407254 
L 471.586286 -232.803354 
L 472.793143 -233.192046 
L 474 -233.573466 
L 475.206857 -233.947749 
L 476.413714 -234.315026 
L 477.620571 -234.675429 
L 478.827429 -235.029085 
L 480.034286 -235.376121 
L 481.241143 -235.716659 
L 482.448 -236.050823 
L 483.654857 -236.378732 
L 484.861714 -236.700503 
L 486.068571 -237.016252 
L 487.275429 -237.326094 
L 488.482286 -237.630139 
L 489.689143 -237.928498 
L 490.896 -238.221279 
L 492.102857 -238.508587 
L 493.309714 -238.778811 
L 494.516571 -239.041644 
L 495.723429 -239.299779 
L 496.930286 -239.553303 
L 498.137143 -239.8023 
L 499.344 -240.046854 
L 500.550857 -240.287048 
L 501.757714 -240.52296 
L 502.964571 -240.754672 
L 504.171429 -240.98226 
L 505.378286 -241.2058 
L 506.585143 -241.425368 
L 507.792 -241.641037 
L 508.998857 -241.852879 
L 510.205714 -242.060965 
L 511.412571 -242.265364 
L 512.619429 -242.466145 
L 513.826286 -242.663375 
L 515.033143 -242.85712 
L 516.24 -243.047443 
L 517.446857 -243.234409 
L 518.653714 -243.41808 
L 519.860571 -243.598516 
L 521.067429 -243.781223 
L 522.274286 -243.964576 
L 523.481143 -244.144566 
L 524.688 -244.321257 
L 525.894857 -244.494711 
L 527.101714 -244.664992 
L 528.308571 -244.832161 
L 529.515429 -244.996276 
L 530.722286 -245.157396 
L 531.929143 -245.315579 
L 533.136 -245.470881 
L 534.342857 -245.623358 
L 535.549714 -245.773062 
L 536.756571 -245.920049 
L 537.963429 -246.064368 
L 539.170286 -246.206072 
L 540.377143 -246.345211 
L 541.584 -246.481833 
L 541.584 -254.50515 
L 541.584 -254.50515 
L 540.377143 -254.50515 
L 539.170286 -254.50515 
L 537.963429 -254.50515 
L 536.756571 -254.50515 
L 535.549714 -254.50515 
L 534.342857 -254.50515 
L 533.136 -254.50515 
L 531.929143 -254.50515 
L 530.722286 -254.50515 
L 529.515429 -254.50515 
L 528.308571 -254.50515 
L 527.101714 -254.50515 
L 525.894857 -254.50515 
L 524.688 -254.50515 
L 523.481143 -254.50515 
L 522.274286 -254.50515 
L 521.067429 -254.50515 
L 519.860571 -254.50515 
L 518.653714 -254.50515 
L 517.446857 -254.50515 
L 516.24 -254.50515 
L 515.033143 -254.50515 
L 513.826286 -254.50515 
L 512.619429 -254.50515 
L 511.412571 -254.50515 
L 510.205714 -254.50515 
L 508.998857 -254.50515 
L 507.792 -254.50515 
L 506.585143 -254.50515 
L 505.378286 -254.50515 
L 504.171429 -254.50515 
L 502.964571 -254.50515 
L 501.757714 -254.50515 
L 500.550857 -254.50515 
L 499.344 -254.50515 
L 498.137143 -254.50515 
L 496.930286 -254.50515 
L 495.723429 -254.50515 
L 494.516571 -254.50515 
L 493.309714 -254.50515 
L 492.102857 -254.50515 
L 490.896 -254.50515 
L 489.689143 -254.50515 
L 488.482286 -254.50515 
L 487.275429 -254.50515 
L 486.068571 -254.50515 
L 484.861714 -254.50515 
L 483.654857 -254.50515 
L 482.448 -254.50515 
L 481.241143 -254.50515 
L 480.034286 -254.50515 
L 478.827429 -254.50515 
L 477.620571 -254.50515 
L 476.413714 -254.50515 
L 475.206857 -254.50515 
L 474 -254.50515 
L 472.793143 -254.50515 
L 471.586286 -254.50515 
L 470.379429 -254.50515 
L 469.172571 -254.50515 
L 467.965714 -254.50515 
L 466.758857 -254.50515 
L 465.552 -254.50515 
L 464.345143 -254.50515 
L 463.138286 -254.50515 
L 461.931429 -254.50515 
L 460.724571 -254.50515 
L 459.517714 -254.50515 
L 458.310857 -254.50515 
L 457.104 -254.50515 
L 455.897143 -254.50515 
L 454.690286 -254.50515 
L 453.483429 -254.50515 
L 452.276571 -254.50515 
L 451.069714 -254.50515 
L 449.862857 -254.50515 
L 448.656 -254.50515 
L 447.449143 -254.50515 
L 446.242286 -254.50515 
L 445.035429 -254.50515 
L 443.828571 -254.50515 
L 442.621714 -254.50515 
L 441.414857 -254.50515 
L 440.208 -254.50515 
L 439.001143 -254.50515 
L 437.794286 -254.50515 
L 436.587429 -254.50515 
L 435.380571 -254.50515 
L 434.173714 -254.50515 
L 432.966857 -254.50515 
L 431.76 -254.50515 
L 430.553143 -254.50515 
L 429.346286 -254.50515 
L 428.139429 -254.50515 
L 426.932571 -254.50515 
L 425.725714 -254.50515 
L 424.518857 -254.50515 
L 423.312 -254.50515 
L 422.105143 -254.50515 
L 420.898286 -254.50515 
L 419.691429 -254.50515 
L 418.484571 -254.50515 
L 417.277714 -254.50515 
L 416.070857 -254.50515 
L 414.864 -254.50515 
L 413.657143 -254.50515 
L 412.450286 -254.50515 
L 411.243429 -254.50515 
L 410.036571 -254.50515 
L 408.829714 -254.50515 
L 407.622857 -254.50515 
L 406.416 -254.50515 
L 405.209143 -254.50515 
L 404.002286 -254.50515 
L 402.795429 -254.50515 
L 401.588571 -254.50515 
L 400.381714 -254.50515 
L 399.174857 -254.50515 
L 397.968 -254.50515 
L 396.761143 -254.50515 
L 395.554286 -254.50515 
L 394.347429 -254.50515 
L 393.140571 -254.50515 
L 391.933714 -254.50515 
L 390.726857 -254.50515 
L 389.52 -254.50515 
L 388.313143 -254.50515 
L 387.106286 -254.50515 
L 385.899429 -254.50515 
L 384.692571 -254.50515 
L 383.485714 -254.50515 
L 382.278857 -254.50515 
L 381.072 -254.50515 
L 379.865143 -254.50515 
L 378.658286 -254.50515 
L 377.451429 -254.50515 
L 376.244571 -254.50515 
L 375.037714 -254.50515 
L 373.830857 -254.50515 
L 372.624 -254.50515 
L 371.417143 -254.50515 
L 370.210286 -254.50515 
L 369.003429 -254.50515 
L 367.796571 -254.50515 
L 366.589714 -254.50515 
L 365.382857 -254.50515 
L 364.176 -254.50515 
L 362.969143 -254.50515 
L 361.762286 -254.50515 
L 360.555429 -254.50515 
L 359.348571 -254.50515 
L 358.141714 -254.50515 
L 356.934857 -254.50515 
L 355.728 -254.50515 
L 354.521143 -254.50515 
L 353.314286 -254.50515 
L 352.107429 -254.50515 
L 350.900571 -254.50515 
L 349.693714 -254.50515 
L 348.486857 -254.50515 
L 347.28 -254.50515 
L 346.073143 -254.50515 
L 344.866286 -254.50515 
L 343.659429 -254.50515 
L 342.452571 -254.50515 
L 341.245714 -254.50515 
L 340.038857 -254.50515 
L 338.832 -254.50515 
L 337.625143 -254.50515 
L 336.418286 -254.50515 
L 335.211429 -254.50515 
L 334.004571 -254.50515 
L 332.797714 -254.50515 
L 331.590857 -254.50515 
L 330.384 -254.50515 
L 329.177143 -254.50515 
L 327.970286 -254.50515 
L 326.763429 -254.50515 
L 325.556571 -254.50515 
L 324.349714 -254.50515 
L 323.142857 -254.50515 
L 321.936 -254.50515 
L 320.729143 -254.50515 
L 319.522286 -254.50515 
L 318.315429 -254.50515 
L 317.108571 -254.50515 
L 315.901714 -254.50515 
L 314.694857 -254.50515 
L 313.488 -254.50515 
L 312.281143 -254.50515 
L 311.074286 -254.50515 
L 309.867429 -254.50515 
L 308.660571 -254.50515 
L 307.453714 -254.50515 
L 306.246857 -254.50515 
L 305.04 -254.50515 
L 303.833143 -254.50515 
L 302.626286 -254.50515 
L 301.419429 -254.50515 
L 300.212571 -254.50515 
L 299.005714 -254.50515 
L 297.798857 -254.50515 
L 296.592 -254.50515 
L 295.385143 -254.50515 
L 294.178286 -254.50515 
L 292.971429 -254.50515 
L 291.764571 -254.50515 
L 290.557714 -254.50515 
L 289.350857 -254.50515 
L 288.144 -254.50515 
L 286.937143 -254.50515 
L 285.730286 -254.50515 
L 284.523429 -254.50515 
L 283.316571 -254.50515 
L 282.109714 -254.50515 
L 280.902857 -254.50515 
L 279.696 -254.50515 
L 278.489143 -254.50515 
L 277.282286 -254.50515 
L 276.075429 -254.50515 
L 274.868571 -254.50515 
L 273.661714 -254.50515 
L 272.454857 -254.50515 
L 271.248 -254.50515 
L 270.041143 -254.50515 
L 268.834286 -254.50515 
L 267.627429 -254.50515 
L 266.420571 -254.50515 
L 265.213714 -254.50515 
L 264.006857 -254.50515 
L 262.8 -254.50515 
L 261.593143 -254.50515 
L 260.386286 -254.50515 
L 259.179429 -254.50515 
L 257.972571 -254.50515 
L 256.765714 -254.50515 
L 255.558857 -254.50515 
L 254.352 -254.50515 
L 253.145143 -254.50515 
L 251.938286 -254.50515 
L 250.731429 -254.50515 
L 249.524571 -254.50515 
L 248.317714 -254.50515 
L 247.110857 -254.50515 
L 245.904 -254.50515 
L 244.697143 -254.50515 
L 243.490286 -254.50515 
L 242.283429 -254.50515 
L 241.076571 -254.50515 
L 239.869714 -254.50515 
L 238.662857 -254.50515 
L 237.456 -254.50515 
L 236.249143 -254.50515 
L 235.042286 -254.50515 
L 233.835429 -254.50515 
L 232.628571 -254.50515 
L 231.421714 -254.50515 
L 230.214857 -254.50515 
L 229.008 -254.505149 
L 227.801143 -254.505149 
L 226.594286 -254.505149 
L 225.387429 -254.505149 
L 224.180571 -254.505149 
L 222.973714 -254.505149 
L 221.766857 -254.505148 
L 220.56 -254.505147 
L 219.353143 -254.505145 
L 218.146286 -254.505142 
L 216.939429 -254.505137 
L 215.732571 -254.505129 
L 214.525714 -254.505118 
L 213.318857 -254.5051 
L 212.112 -254.505075 
L 210.905143 -254.505037 
L 209.698286 -254.504982 
L 208.491429 -254.504902 
L 207.284571 -254.504789 
L 206.077714 -254.504628 
L 204.870857 -254.504409 
L 203.664 -254.504109 
L 202.457143 -254.503697 
L 201.250286 -254.503137 
L 200.043429 -254.502379 
L 198.836571 -254.501362 
L 197.629714 -254.500003 
L 196.422857 -254.498199 
L 195.216 -254.495817 
L 194.009143 -254.492687 
L 192.802286 -254.488598 
L 191.595429 -254.483267 
L 190.388571 -254.47635 
L 189.181714 -254.467429 
L 187.974857 -254.455977 
L 186.768 -254.441339 
L 185.561143 -254.422705 
L 184.354286 -254.399081 
L 183.147429 -254.369249 
L 181.940571 -254.333805 
L 180.733714 -254.293551 
L 179.526857 -254.244447 
L 178.32 -254.184646 
L 177.113143 -254.11186 
L 175.906286 -254.023601 
L 174.699429 -253.916807 
L 173.492571 -253.787859 
L 172.285714 -253.632207 
L 171.078857 -253.403359 
L 169.872 -253.096404 
L 168.665143 -252.712932 
L 167.458286 -252.236145 
L 166.251429 -251.669266 
L 165.044571 -251.130086 
L 163.837714 -250.45285 
L 162.630857 -249.59327 
L 161.424 -248.624517 
L 160.217143 -247.228797 
L 159.010286 -245.541063 
L 157.803429 -243.523944 
L 156.596571 -241.235788 
L 155.389714 -238.534472 
L 154.182857 -235.439239 
L 152.976 -231.956751 
L 151.769143 -227.543157 
L 150.562286 -222.448259 
L 149.355429 -216.809659 
L 148.148571 -210.404261 
L 146.941714 -203.090232 
L 145.734857 -194.99032 
L 144.528 -187.278866 
L 143.321143 -179.018218 
L 142.114286 -170.102096 
L 140.907429 -160.619041 
L 139.700571 -150.169241 
L 138.493714 -138.979719 
L 137.286857 -127.619919 
L 136.08 -116.818786 
L 134.873143 -107.408649 
L 133.666286 -96.800293 
L 132.459429 -86.931453 
L 131.252571 -78.145922 
L 130.045714 -70.620954 
L 128.838857 -64.420402 
L 127.632 -59.603168 
L 126.425143 -56.07827 
L 125.218286 -53.971687 
L 124.011429 -52.33953 
L 122.804571 -51.296183 
L 121.597714 -50.780194 
L 120.390857 -50.538318 
L 119.184 -50.423816 
L 117.977143 -50.375073 
L 116.770286 -50.356617 
L 115.563429 -50.35039 
L 114.356571 -50.348635 
L 113.149714 -50.348231 
L 111.942857 -50.348154 
L 110.736 -50.348142 
L 109.529143 -50.34814 
L 108.322286 -50.34814 
L 107.115429 -50.34814 
L 105.908571 -50.34814 
L 104.701714 -50.34814 
L 103.494857 -50.34814 
L 102.288 -50.34814 
L 101.081143 -50.34814 
L 99.874286 -50.34814 
L 98.667429 -50.34814 
L 97.460571 -50.34814 
L 96.253714 -50.34814 
L 95.046857 -50.34814 
L 93.84 -50.34814 
L 92.633143 -50.34814 
L 91.426286 -50.34814 
L 90.219429 -50.34814 
L 89.012571 -50.34814 
L 87.805714 -50.34814 
L 86.598857 -50.34814 
L 85.392 -50.34814 
L 84.185143 -50.34814 
L 82.978286 -50.34814 
L 81.771429 -50.34814 
L 80.564571 -50.34814 
L 79.357714 -50.34814 
L 78.150857 -50.34814 
L 76.944 -50.34814 
L 75.737143 -50.34814 
L 74.530286 -50.34814 
L 73.323429 -50.34814 
L 72.116571 -50.34814 
L 70.909714 -50.34814 
L 69.702857 -50.34814 
L 68.496 -50.34814 
L 67.289143 -50.34814 
L 66.082286 -50.34814 
L 64.875429 -50.34814 
L 63.668571 -50.34814 
L 62.461714 -50.34814 
L 61.254857 -50.34814 
L 60.048 -50.34814 
z
"/>
    </defs>
    <g clip-path="url(#pfb156a8bd3)">
     <use xlink:href="#m53ecfc4047" x="0" y="309.461" style="fill: #d9773a; fill-opacity: 0.22"/>
    </g>
   </g>
   <g id="matplotlib.axis_1">
    <g id="xtick_1">
     <g id="line2d_1">
      <defs>
       <path id="mf19faf14ee" d="M 0 0 
L 0 3.5 
" style="stroke: #7d6b56; stroke-width: 0.8"/>
      </defs>
      <g>
       <use xlink:href="#mf19faf14ee" x="60.048" y="263.196" style="fill: #7d6b56; stroke: #7d6b56; stroke-width: 0.8"/>
      </g>
     </g>
     <g id="text_1">
      <text style="font-size: 10px; font-family: 'Inter', 'Helvetica Neue', 'Arial', 'DejaVu Sans', sans-serif; text-anchor: middle; fill: #7d6b56" x="60.048" y="279.716" transform="rotate(-0 60.048 279.716)">1.15</text>
     </g>
    </g>
    <g id="xtick_2">
     <g id="line2d_2">
      <g>
       <use xlink:href="#mf19faf14ee" x="149.973103" y="263.196" style="fill: #7d6b56; stroke: #7d6b56; stroke-width: 0.8"/>
      </g>
     </g>
     <g id="text_2">
      <text style="font-size: 10px; font-family: 'Inter', 'Helvetica Neue', 'Arial', 'DejaVu Sans', sans-serif; text-anchor: middle; fill: #7d6b56" x="149.973103" y="279.716" transform="rotate(-0 149.973103 279.716)">1.20</text>
     </g>
    </g>
    <g id="xtick_3">
     <g id="line2d_3">
      <g>
       <use xlink:href="#mf19faf14ee" x="239.898205" y="263.196" style="fill: #7d6b56; stroke: #7d6b56; stroke-width: 0.8"/>
      </g>
     </g>
     <g id="text_3">
      <text style="font-size: 10px; font-family: 'Inter', 'Helvetica Neue', 'Arial', 'DejaVu Sans', sans-serif; text-anchor: middle; fill: #7d6b56" x="239.898205" y="279.716" transform="rotate(-0 239.898205 279.716)">1.25</text>
     </g>
    </g>
    <g id="xtick_4">
     <g id="line2d_4">
      <g>
       <use xlink:href="#mf19faf14ee" x="329.823308" y="263.196" style="fill: #7d6b56; stroke: #7d6b56; stroke-width: 0.8"/>
      </g>
     </g>
     <g id="text_4">
      <text style="font-size: 10px; font-family: 'Inter', 'Helvetica Neue', 'Arial', 'DejaVu Sans', sans-serif; text-anchor: middle; fill: #7d6b56" x="329.823308" y="279.716" transform="rotate(-0 329.823308 279.716)">1.30</text>
     </g>
    </g>
    <g id="xtick_5">
     <g id="line2d_5">
      <g>
       <use xlink:href="#mf19faf14ee" x="419.74841" y="263.196" style="fill: #7d6b56; stroke: #7d6b56; stroke-width: 0.8"/>
      </g>
     </g>
     <g id="text_5">
      <text style="font-size: 10px; font-family: 'Inter', 'Helvetica Neue', 'Arial', 'DejaVu Sans', sans-serif; text-anchor: middle; fill: #7d6b56" x="419.74841" y="279.716" transform="rotate(-0 419.74841 279.716)">1.35</text>
     </g>
    </g>
    <g id="xtick_6">
     <g id="line2d_6">
      <g>
       <use xlink:href="#mf19faf14ee" x="509.673513" y="263.196" style="fill: #7d6b56; stroke: #7d6b56; stroke-width: 0.8"/>
      </g>
     </g>
     <g id="text_6">
      <text style="font-size: 10px; font-family: 'Inter', 'Helvetica Neue', 'Arial', 'DejaVu Sans', sans-serif; text-anchor: middle; fill: #7d6b56" x="509.673513" y="279.716" transform="rotate(-0 509.673513 279.716)">1.40</text>
     </g>
    </g>
    <g id="text_7">
     <text style="font-size: 11px; font-family: 'Inter', 'Helvetica Neue', 'Arial', 'DejaVu Sans', sans-serif; text-anchor: middle; fill: #7d6b56" x="300.816" y="296.318" transform="rotate(-0 300.816 296.318)">Threshold (loudness versus quiet night)</text>
    </g>
   </g>
   <g id="matplotlib.axis_2">
    <g id="ytick_1">
     <g id="line2d_7">
      <path d="M 60.048 259.11286 
L 541.584 259.11286 
" clip-path="url(#pfb156a8bd3)" style="fill: none; stroke-dasharray: 0.7,1.155; stroke-dashoffset: 0; stroke: #7d6b56; stroke-opacity: 0.25098; stroke-width: 0.7"/>
     </g>
     <g id="line2d_8">
      <defs>
       <path id="mfd4c1a60b1" d="M 0 0 
L -3.5 0 
" style="stroke: #7d6b56; stroke-width: 0.8"/>
      </defs>
      <g>
       <use xlink:href="#mfd4c1a60b1" x="60.048" y="259.11286" style="fill: #7d6b56; stroke: #7d6b56; stroke-width: 0.8"/>
      </g>
     </g>
     <g id="text_8">
      <text style="font-size: 10px; font-family: 'Inter', 'Helvetica Neue', 'Arial', 'DejaVu Sans', sans-serif; text-anchor: end; fill: #7d6b56" x="53.048" y="263.87286" transform="rotate(-0 53.048 263.87286)">0.00</text>
     </g>
    </g>
    <g id="ytick_2">
     <g id="line2d_9">
      <path d="M 60.048 208.073607 
L 541.584 208.073607 
" clip-path="url(#pfb156a8bd3)" style="fill: none; stroke-dasharray: 0.7,1.155; stroke-dashoffset: 0; stroke: #7d6b56; stroke-opacity: 0.25098; stroke-width: 0.7"/>
     </g>
     <g id="line2d_10">
      <g>
       <use xlink:href="#mfd4c1a60b1" x="60.048" y="208.073607" style="fill: #7d6b56; stroke: #7d6b56; stroke-width: 0.8"/>
      </g>
     </g>
     <g id="text_9">
      <text style="font-size: 10px; font-family: 'Inter', 'Helvetica Neue', 'Arial', 'DejaVu Sans', sans-serif; text-anchor: end; fill: #7d6b56" x="53.048" y="212.833607" transform="rotate(-0 53.048 212.833607)">0.25</text>
     </g>
    </g>
    <g id="ytick_3">
     <g id="line2d_11">
      <path d="M 60.048 157.034355 
L 541.584 157.034355 
" clip-path="url(#pfb156a8bd3)" style="fill: none; stroke-dasharray: 0.7,1.155; stroke-dashoffset: 0; stroke: #7d6b56; stroke-opacity: 0.25098; stroke-width: 0.7"/>
     </g>
     <g id="line2d_12">
      <g>
       <use xlink:href="#mfd4c1a60b1" x="60.048" y="157.034355" style="fill: #7d6b56; stroke: #7d6b56; stroke-width: 0.8"/>
      </g>
     </g>
     <g id="text_10">
      <text style="font-size: 10px; font-family: 'Inter', 'Helvetica Neue', 'Arial', 'DejaVu Sans', sans-serif; text-anchor: end; fill: #7d6b56" x="53.048" y="161.794355" transform="rotate(-0 53.048 161.794355)">0.50</text>
     </g>
    </g>
    <g id="ytick_4">
     <g id="line2d_13">
      <path d="M 60.048 105.995103 
L 541.584 105.995103 
" clip-path="url(#pfb156a8bd3)" style="fill: none; stroke-dasharray: 0.7,1.155; stroke-dashoffset: 0; stroke: #7d6b56; stroke-opacity: 0.25098; stroke-width: 0.7"/>
     </g>
     <g id="line2d_14">
      <g>
       <use xlink:href="#mfd4c1a60b1" x="60.048" y="105.995103" style="fill: #7d6b56; stroke: #7d6b56; stroke-width: 0.8"/>
      </g>
     </g>
     <g id="text_11">
      <text style="font-size: 10px; font-family: 'Inter', 'Helvetica Neue', 'Arial', 'DejaVu Sans', sans-serif; text-anchor: end; fill: #7d6b56" x="53.048" y="110.755103" transform="rotate(-0 53.048 110.755103)">0.75</text>
     </g>
    </g>
    <g id="ytick_5">
     <g id="line2d_15">
      <path d="M 60.048 54.95585 
L 541.584 54.95585 
" clip-path="url(#pfb156a8bd3)" style="fill: none; stroke-dasharray: 0.7,1.155; stroke-dashoffset: 0; stroke: #7d6b56; stroke-opacity: 0.25098; stroke-width: 0.7"/>
     </g>
     <g id="line2d_16">
      <g>
       <use xlink:href="#mfd4c1a60b1" x="60.048" y="54.95585" style="fill: #7d6b56; stroke: #7d6b56; stroke-width: 0.8"/>
      </g>
     </g>
     <g id="text_12">
      <text style="font-size: 10px; font-family: 'Inter', 'Helvetica Neue', 'Arial', 'DejaVu Sans', sans-serif; text-anchor: end; fill: #7d6b56" x="53.048" y="59.71585" transform="rotate(-0 53.048 59.71585)">1.00</text>
     </g>
    </g>
    <g id="text_13">
     <text style="font-size: 11px; font-family: 'Inter', 'Helvetica Neue', 'Arial', 'DejaVu Sans', sans-serif; text-anchor: middle; fill: #7d6b56" x="27.247187" y="153.972" transform="rotate(-90 27.247187 153.972)">Chance of zero false alarms over 10 years</text>
    </g>
   </g>
   <g id="line2d_17">
    <path d="M 240.436904 263.196 
" style="fill: none; stroke: #7d6b56; stroke-opacity: 0.55; stroke-width: 1.4; stroke-linecap: square"/>
    <defs>
     <path id="mf95fbbca5c" d="M 0 -3.5 
L -3.5 3.5 
L 3.5 3.5 
z
"/>
    </defs>
    <g>
     <use xlink:href="#mf95fbbca5c" x="240.436904" y="263.196" style="fill: #7d6b56; fill-opacity: 0.55"/>
    </g>
   </g>
   <g id="patch_3">
    <path d="M 60.048 263.196 
L 60.048 44.748 
" style="fill: none; stroke: #7d6b56; stroke-width: 0.8; stroke-linejoin: miter; stroke-linecap: square"/>
   </g>
   <g id="patch_4">
    <path d="M 60.048 263.196 
L 541.584 263.196 
" style="fill: none; stroke: #7d6b56; stroke-width: 0.8; stroke-linejoin: miter; stroke-linecap: square"/>
   </g>
   <g id="line2d_18">
    <path d="M 60.048 259.11286 
L 169.872 259.014834 
L 173.492571 258.746806 
L 175.906286 258.339261 
L 178.32 257.61789 
L 179.526857 257.096303 
L 180.733714 256.442384 
L 181.940571 255.636981 
L 183.147429 254.661374 
L 184.354286 253.497897 
L 185.561143 252.130535 
L 186.768 250.545473 
L 187.974857 248.731558 
L 189.181714 246.680667 
L 190.388571 244.387959 
L 192.802286 239.074837 
L 195.216 232.821366 
L 197.629714 225.706545 
L 200.043429 217.849852 
L 203.664 205.001523 
L 208.491429 186.748195 
L 214.525714 163.862234 
L 218.146286 150.831449 
L 221.766857 138.669672 
L 225.387429 127.537454 
L 227.801143 120.727952 
L 230.214857 114.41593 
L 232.628571 108.596144 
L 235.042286 103.255289 
L 237.456 98.374088 
L 239.869714 93.929085 
L 242.283429 89.894126 
L 244.697143 86.241569 
L 247.110857 82.943232 
L 249.524571 79.971121 
L 251.938286 77.297972 
L 254.352 74.897634 
L 256.765714 72.745333 
L 259.179429 70.81783 
L 261.593143 69.093504 
L 265.213714 66.844719 
L 268.834286 64.947891 
L 272.454857 63.350177 
L 276.075429 62.005893 
L 279.696 60.875811 
L 284.523429 59.645052 
L 289.350857 58.670199 
L 295.385143 57.732083 
L 301.419429 57.03178 
L 308.660571 56.421572 
L 317.108571 55.933647 
L 327.970286 55.538235 
L 342.452571 55.248973 
L 364.176 55.061548 
L 405.209143 54.971751 
L 541.584 54.95589 
L 541.584 54.95589 
" clip-path="url(#pfb156a8bd3)" style="fill: none; stroke: #7d6b56; stroke-width: 1.9; stroke-linecap: round"/>
   </g>
   <g id="line2d_19">
    <path d="M 216.396475 157.034355 
" clip-path="url(#pfb156a8bd3)" style="fill: none; stroke: #c4543a; stroke-width: 1.4; stroke-linecap: square"/>
    <defs>
     <path id="me9ad100dd7" d="M 0 2.5 
C 0.663008 2.5 1.29895 2.236584 1.767767 1.767767 
C 2.236584 1.29895 2.5 0.663008 2.5 0 
C 2.5 -0.663008 2.236584 -1.29895 1.767767 -1.767767 
C 1.29895 -2.236584 0.663008 -2.5 0 -2.5 
C -0.663008 -2.5 -1.29895 -2.236584 -1.767767 -1.767767 
C -2.236584 -1.29895 -2.5 -0.663008 -2.5 0 
C -2.5 0.663008 -2.236584 1.29895 -1.767767 1.767767 
C -1.29895 2.236584 -0.663008 2.5 0 2.5 
z
" style="stroke: #c4543a"/>
    </defs>
    <g clip-path="url(#pfb156a8bd3)">
     <use xlink:href="#me9ad100dd7" x="216.396475" y="157.034355" style="fill: #c4543a; stroke: #c4543a"/>
    </g>
   </g>
   <g id="line2d_20">
    <path d="M 253.854229 75.371551 
" clip-path="url(#pfb156a8bd3)" style="fill: none; stroke: #c4543a; stroke-width: 1.4; stroke-linecap: square"/>
    <g clip-path="url(#pfb156a8bd3)">
     <use xlink:href="#me9ad100dd7" x="253.854229" y="75.371551" style="fill: #c4543a; stroke: #c4543a"/>
    </g>
   </g>
   <g id="line2d_21">
    <path d="M 268.389712 65.163701 
" clip-path="url(#pfb156a8bd3)" style="fill: none; stroke: #c4543a; stroke-width: 1.4; stroke-linecap: square"/>
    <g clip-path="url(#pfb156a8bd3)">
     <use xlink:href="#me9ad100dd7" x="268.389712" y="65.163701" style="fill: #c4543a; stroke: #c4543a"/>
    </g>
   </g>
   <g id="line2d_22">
    <path d="M 301.766222 56.997421 
" clip-path="url(#pfb156a8bd3)" style="fill: none; stroke: #c4543a; stroke-width: 1.4; stroke-linecap: square"/>
    <g clip-path="url(#pfb156a8bd3)">
     <use xlink:href="#me9ad100dd7" x="301.766222" y="56.997421" style="fill: #c4543a; stroke: #c4543a"/>
    </g>
   </g>
   <g id="patch_5">
    <path d="M 223.945429 163.033018 
Q 220.758871 160.500868 217.572313 157.968717 
" style="fill: none; stroke: #c4543a; stroke-width: 0.65; stroke-linecap: round"/>
   </g>
   <g id="text_14">
    <text style="font-size: 9.5px; font-family: 'Inter', 'Helvetica Neue', 'Arial', 'DejaVu Sans', sans-serif; text-anchor: start; fill: #c4543a" x="223.396475" y="174.078355" transform="rotate(-0 223.396475 174.078355)">50%</text>
   </g>
   <g id="patch_6">
    <path d="M 261.403184 81.370214 
Q 258.216626 78.838064 255.030067 76.305913 
" style="fill: none; stroke: #c4543a; stroke-width: 0.65; stroke-linecap: round"/>
   </g>
   <g id="text_15">
    <text style="font-size: 9.5px; font-family: 'Inter', 'Helvetica Neue', 'Arial', 'DejaVu Sans', sans-serif; text-anchor: start; fill: #c4543a" x="260.854229" y="92.415551" transform="rotate(-0 260.854229 92.415551)">90%</text>
   </g>
   <g id="patch_7">
    <path d="M 275.938666 71.162364 
Q 272.752108 68.630213 269.56555 66.098063 
" style="fill: none; stroke: #c4543a; stroke-width: 0.65; stroke-linecap: round"/>
   </g>
   <g id="text_16">
    <text style="font-size: 9.5px; font-family: 'Inter', 'Helvetica Neue', 'Arial', 'DejaVu Sans', sans-serif; text-anchor: start; fill: #c4543a" x="275.389712" y="82.207701" transform="rotate(-0 275.389712 82.207701)">95%</text>
   </g>
   <g id="patch_8">
    <path d="M 309.315177 62.996083 
Q 306.128618 60.463933 302.94206 57.931783 
" style="fill: none; stroke: #c4543a; stroke-width: 0.65; stroke-linecap: round"/>
   </g>
   <g id="text_17">
    <text style="font-size: 9.5px; font-family: 'Inter', 'Helvetica Neue', 'Arial', 'DejaVu Sans', sans-serif; text-anchor: start; fill: #c4543a" x="308.766222" y="74.041421" transform="rotate(-0 308.766222 74.041421)">99%</text>
   </g>
   <g id="legend_1">
    <g id="line2d_23">
     <path d="M 388.141187 222.4125 
L 396.691187 222.4125 
L 405.241187 222.4125 
" style="fill: none; stroke: #7d6b56; stroke-width: 1.9; stroke-linecap: square"/>
    </g>
    <g id="text_18">
     <text style="font-size: 9.5px; font-family: 'Inter', 'Helvetica Neue', 'Arial', 'DejaVu Sans', sans-serif; text-anchor: start; fill: #7d6b56" x="409.991187" y="225.7375" transform="rotate(-0 409.991187 225.7375)">Best estimate</text>
    </g>
    <g id="patch_9">
     <path d="M 388.141187 240.13 
L 405.241187 240.13 
L 405.241187 233.48 
L 388.141187 233.48 
z
" style="fill: #d9773a; opacity: 0.22"/>
    </g>
    <g id="text_19">
     <text style="font-size: 9.5px; font-family: 'Inter', 'Helvetica Neue', 'Arial', 'DejaVu Sans', sans-serif; text-anchor: start; fill: #7d6b56" x="409.991187" y="240.13" transform="rotate(-0 409.991187 240.13)">90% uncertainty band</text>
    </g>
    <g id="line2d_24">
     <defs>
      <path id="me5b89674ba" d="M 0 -3.5 
L -3.5 3.5 
L 3.5 3.5 
z
" style="stroke: #7d6b56; stroke-opacity: 0.55; stroke-linejoin: miter"/>
     </defs>
     <g>
      <use xlink:href="#me5b89674ba" x="396.691187" y="251.1975" style="fill: #7d6b56; fill-opacity: 0.55; stroke: #7d6b56; stroke-opacity: 0.55; stroke-linejoin: miter"/>
     </g>
    </g>
    <g id="text_20">
     <text style="font-size: 9.5px; font-family: 'Inter', 'Helvetica Neue', 'Arial', 'DejaVu Sans', sans-serif; text-anchor: start; fill: #7d6b56" x="409.991187" y="254.5225" transform="rotate(-0 409.991187 254.5225)">Subtle event's peak loudness</text>
    </g>
   </g>
  </g>
  <g id="text_21">
   <text style="font-size: 12.5px; font-family: 'Inter', 'Helvetica Neue', 'Arial', 'DejaVu Sans', sans-serif; text-anchor: start; fill: #7d6b56" x="10.8" y="22.7" transform="rotate(-0 10.8 22.7)">Probability of zero false alarms in 10 years versus threshold</text>
  </g>
 </g>
 <defs>
  <clipPath id="pfb156a8bd3">
   <rect x="60.048" y="44.748" width="481.536" height="218.448"/>
  </clipPath>
 </defs>
</svg>
